<?xml version="1.0" encoding="utf-8"?>
<!-- Generator: Adobe Illustrator 23.0.1, SVG Export Plug-In . SVG Version: 6.00 Build 0)  -->
<svg version="1.1" id="Layer_2" xmlns="http://www.w3.org/2000/svg" xmlns:xlink="http://www.w3.org/1999/xlink" x="0px" y="0px"
	 viewBox="0 0 100 100" style="enable-background:new 0 0 100 100;" xml:space="preserve">
<style type="text/css">
	.st0{opacity:0.8;}
	.st1{fill:#FFFFFF;}
	.st2{fill:none;}
</style>
<g class="st0">
	<path class="st1" d="M86.06,84.52H83v-5h2.89v-1.17h5v2h-4.83V84.52z M90.89,77.34h-5v-4h5V77.34z M90.89,71.34h-5v-10h5V71.34z
		 M90.89,57.34h-5v-2h5V57.34z M90.89,54.34h-5v-4h5V54.34z M90.89,48.34h-5v-10h5V48.34z M90.89,34.34h-5v-2h5V34.34z M90.89,31.34
		h-5v-4h5V31.34z"/>
</g>
<g class="st0">
	<polygon class="st1" points="16.18,58.87 11.18,58.87 11.18,51.1 21.16,43.67 21.16,10.47 90.89,10.47 90.89,23 85.89,23 
		85.89,15.47 26.16,15.47 26.16,46.18 16.18,53.61 	"/>
</g>
<g class="st0">
	<polygon class="st1" points="80.12,96.73 51.59,96.73 51.59,91.73 75.12,91.73 75.12,66.23 70.81,66.23 70.81,61.23 80.12,61.23 	
		"/>
</g>
<g class="st0">
	<g>
		<path class="st1" d="M41.91,26.08c-4.98,0-9.02,4.04-9.02,9.02c0,4.98,4.04,9.02,9.02,9.02c4.98,0,9.02-4.04,9.02-9.02
			C50.93,30.12,46.89,26.08,41.91,26.08z M41.91,41.36c-3.46,0-6.26-2.8-6.26-6.26c0-3.46,2.8-6.26,6.26-6.26
			c3.46,0,6.26,2.8,6.26,6.26C48.17,38.56,45.37,41.36,41.91,41.36z"/>
	</g>
	<g>
		<path class="st1" d="M41.91,31.76c-1.85,0-3.34,1.5-3.34,3.34c0,1.85,1.5,3.34,3.34,3.34c1.85,0,3.34-1.5,3.34-3.34
			C45.25,33.25,43.75,31.76,41.91,31.76z M42.75,36.41c-0.72,0.47-1.69,0.26-2.15-0.46c-0.47-0.72-0.26-1.69,0.46-2.15
			c0.72-0.47,1.69-0.26,2.15,0.46C43.68,34.97,43.48,35.94,42.75,36.41z"/>
	</g>
</g>
<g class="st0">
	<g>
		<rect x="21.58" y="2.48" class="st1" width="2" height="5"/>
	</g>
	<g>
		<path class="st1" d="M40.47,7.48h-9.93v-5h9.93V7.48z M26.56,7.48h-1.99v-5h1.99V7.48z"/>
	</g>
	<g>
		<path class="st1" d="M86.16,7.48h-9.93v-5h9.93V7.48z M72.25,7.48h-1.99v-5h1.99V7.48z M69.27,7.48H65.3v-5h3.97V7.48z
			 M63.31,7.48h-9.93v-5h9.93V7.48z M49.41,7.48h-1.99v-5h1.99V7.48z M46.43,7.48h-3.97v-5h3.97V7.48z"/>
	</g>
	<g>
		<rect x="88.14" y="2.48" class="st1" width="2" height="5"/>
	</g>
</g>
<g class="st0">
	<g>
		<g>
			<path class="st1" d="M7.48,61.7v35.07H46.3l-1.1,0l0.01-31.7c0-0.29,0.25-0.52,0.55-0.52c0.3,0,0.55,0.23,0.55,0.52l-0.01,31.7
				h2.54V61.7H7.48z M11.14,96.75l-1.1,0l0.01-31.7c0-0.29,0.25-0.52,0.55-0.52h0c0.3,0,0.55,0.23,0.55,0.52L11.14,96.75z
				 M13.34,96.75l-1.1,0l0-31.7c0-0.29,0.25-0.52,0.55-0.52h0c0.3,0,0.55,0.23,0.55,0.52L13.34,96.75z M15.54,96.76l-1.1,0
				l0.01-31.7c0-0.29,0.25-0.52,0.55-0.52h0c0.3,0,0.55,0.23,0.55,0.52L15.54,96.76z M37.51,96.77l-1.1,0l0-15.97
				c-0.22,1.01-0.6,1.97-1.1,2.84l0,13.13l-1.1,0l0-11.58c-0.34,0.39-0.71,0.76-1.1,1.1l0,10.48l-1.1,0l0-9.66
				c-0.35,0.23-0.72,0.44-1.1,0.62l0,9.03l-1.1,0l0-8.59c-0.36,0.12-0.72,0.23-1.1,0.31l0,8.28l-1.1,0l0-8.09
				c-0.36,0.04-0.72,0.06-1.09,0.06c0,0,0,0,0,0l0,8.03l-1.1,0l0-8.09c-0.37-0.04-0.74-0.1-1.1-0.18l0,8.27l-1.1,0l0-8.58
				c-0.38-0.13-0.74-0.28-1.1-0.45l0,9.03l-1.1,0l0-9.65c-0.38-0.25-0.75-0.52-1.1-0.82l0,10.47l-1.1,0l0-11.58
				c-0.41-0.48-0.78-1-1.1-1.56l0,13.13l-1.1,0l0-15.99c-0.15-0.7-0.23-1.42-0.23-2.16c0-0.74,0.08-1.47,0.23-2.17l0-11.38
				c0-0.29,0.25-0.52,0.55-0.52h0c0.3,0,0.55,0.23,0.55,0.52l0,8.53c0.32-0.55,0.69-1.08,1.1-1.56l0-6.97
				c0-0.29,0.25-0.52,0.55-0.52h0c0.3,0,0.55,0.23,0.55,0.52l0,5.87c0.35-0.3,0.71-0.57,1.1-0.82l0-5.05c0-0.29,0.25-0.52,0.55-0.52
				h0c0.3,0,0.55,0.23,0.55,0.52l0,4.43c0.35-0.17,0.72-0.32,1.1-0.45l0-3.97c0-0.29,0.25-0.52,0.55-0.52h0
				c0.3,0,0.55,0.23,0.55,0.52l0,3.66c0.36-0.08,0.73-0.14,1.1-0.18l0-3.48c0-0.29,0.25-0.52,0.55-0.52c0.3,0,0.55,0.23,0.55,0.52
				l0,3.42h0c0.37,0,0.74,0.02,1.1,0.06l0-3.48c0-0.29,0.25-0.52,0.55-0.52h0c0.3,0,0.55,0.23,0.55,0.52l0,3.66
				c0.37,0.08,0.74,0.19,1.1,0.31l0-3.97c0-0.29,0.25-0.52,0.55-0.52c0.3,0,0.55,0.23,0.55,0.52l0,4.42
				c0.38,0.18,0.75,0.39,1.1,0.62l0-5.04c0-0.29,0.25-0.52,0.55-0.52c0.3,0,0.55,0.23,0.55,0.52l0,5.86c0.39,0.34,0.76,0.71,1.1,1.1
				l0-6.96c0-0.29,0.25-0.52,0.55-0.52c0.3,0,0.55,0.23,0.55,0.52l0,8.51c0.5,0.87,0.88,1.83,1.1,2.84l0-11.35
				c0-0.29,0.25-0.52,0.55-0.52c0.3,0,0.55,0.23,0.55,0.52L37.51,96.77z M39.7,96.77l-1.1,0l0.01-31.7c0-0.29,0.25-0.52,0.55-0.52h0
				c0.3,0,0.55,0.23,0.55,0.52L39.7,96.77z M41.9,96.77l-1.1,0l0.01-31.7c0-0.29,0.25-0.52,0.55-0.52c0.3,0,0.55,0.23,0.55,0.52
				L41.9,96.77z M44.1,96.77l-1.1,0l0-31.7c0-0.29,0.25-0.52,0.55-0.52c0.3,0,0.55,0.23,0.55,0.52L44.1,96.77z"/>
		</g>
	</g>
	<g>
		<circle class="st2" cx="26.53" cy="78.61" r="10.12"/>
	</g>
	<g>
		<path class="st1" d="M32.8,84.43c-0.49-1.92-1.86-3.58-3.85-4.35c-3.26-1.25-6.92,0.37-8.17,3.63c-0.11,0.29-0.19,0.59-0.26,0.89
			c0.78,0.67,1.69,1.22,2.71,1.61C26.61,87.52,30.29,86.71,32.8,84.43z"/>
	</g>
</g>
</svg>
