<svg id="Layer_1" data-name="Layer 1" xmlns="http://www.w3.org/2000/svg" viewBox="0 0 349.17 349.17"><defs><style>.cls-1{fill:#f7f7f7;}.cls-2{fill:#ded8da;}.cls-3{fill:#f06d76;}.cls-4{fill:#b52652;}.cls-5{fill:#344d68;}.cls-6{fill:#335878;}.cls-7{fill:#6bc1c1;}.cls-8{fill:#39bca3;}.cls-9{fill:#325878;}.cls-10{fill:#3f2b2d;opacity:0.15;isolation:isolate;}.cls-11{fill:#325777;}</style></defs><title>meAtSleep</title><path class="cls-1" d="M174.58.19A174.4,174.4,0,0,0,174.25,349L174,315.12h.36l-.75-66H257A13.87,13.87,0,0,1,270.9,263V316.3h-.45a26.56,26.56,0,0,1-.58,4.36A174.4,174.4,0,0,0,174.58.19Z"/><path class="cls-2" d="M265.13,75.55,129.94,235.28,174,280l-.35-30.87H257A13.87,13.87,0,0,1,270.9,263V316.3h-.45a26.56,26.56,0,0,1-.58,4.36,175.62,175.62,0,0,0,31.75-26.6L323.75,265a173.43,173.43,0,0,0,25.08-83.17Z"/><path class="cls-3" d="M143.49,96.42H214a18.25,18.25,0,0,1,18.25,18.25h0v99.39a25.3,25.3,0,0,1-25.3,25.3H143.49a25.3,25.3,0,0,1-25.3-25.3V121.71A25.3,25.3,0,0,1,143.49,96.42Z"/><path class="cls-4" d="M158.19,200.9l12.65,1.82a34.73,34.73,0,0,0,10.33-.07l11.06-1.75a1.52,1.52,0,0,1,1.52,1.52h0a1.51,1.51,0,0,1-1.52,1.51l-11.06,1.75a34.4,34.4,0,0,1-10.33.07l-12.65-1.82a1.51,1.51,0,0,1-1.52-1.51h0A1.52,1.52,0,0,1,158.19,200.9Z"/><polygon class="cls-5" points="200.21 191.84 200.21 196.78 198.45 196.78 198.45 196.57 198.45 192.06 198.45 191.84 200.21 191.84"/><polygon class="cls-6" points="198.45 196.57 198.45 196.78 196.5 196.78 196.5 196.57 196.5 192.06 196.5 191.84 198.45 191.84 198.45 192.06 198.45 196.57"/><polygon class="cls-5" points="196.5 196.57 196.5 196.78 194.55 196.78 194.55 196.57 194.55 192.06 194.55 191.84 196.5 191.84 196.5 192.06 196.5 196.57"/><polygon class="cls-6" points="194.55 196.57 194.55 196.78 192.59 196.78 192.59 196.57 192.59 192.06 192.59 191.84 194.55 191.84 194.55 192.06 194.55 196.57"/><polygon class="cls-5" points="192.59 196.57 192.59 196.78 190.64 196.78 190.64 196.57 190.64 192.06 190.64 191.84 192.59 191.84 192.59 192.06 192.59 196.57"/><polygon class="cls-6" points="190.64 196.57 190.64 196.78 188.69 196.78 188.69 196.57 188.69 192.06 188.69 191.84 190.64 191.84 190.64 192.06 190.64 196.57"/><polygon class="cls-5" points="188.69 196.57 188.69 196.78 186.74 196.78 186.74 196.57 186.74 192.06 186.74 191.84 188.69 191.84 188.69 192.06 188.69 196.57"/><polygon class="cls-6" points="186.74 196.57 186.74 196.78 184.78 196.78 184.78 196.57 184.78 192.06 184.78 191.84 186.74 191.84 186.74 192.06 186.74 196.57"/><polygon class="cls-5" points="184.78 196.57 184.78 196.78 182.44 196.78 182.44 196.57 182.44 192.06 182.44 191.84 184.78 191.84 184.78 192.06 184.78 196.57"/><polygon class="cls-6" points="182.44 196.57 182.44 196.78 180.49 196.78 180.49 196.57 180.49 192.06 180.49 191.84 182.44 191.84 182.44 192.06 182.44 196.57"/><polygon class="cls-5" points="180.49 196.57 180.49 196.78 178.53 196.78 178.53 196.57 178.53 192.06 178.53 191.84 180.49 191.84 180.49 192.06 180.49 196.57"/><polygon class="cls-6" points="178.53 196.57 178.53 196.78 176.58 196.78 176.58 196.57 176.58 192.06 176.58 191.84 178.53 191.84 178.53 192.06 178.53 196.57"/><polygon class="cls-5" points="176.58 196.57 176.58 196.78 174.63 196.78 174.63 196.57 174.63 192.06 174.63 191.84 176.58 191.84 176.58 192.06 176.58 196.57"/><polygon class="cls-6" points="174.63 196.57 174.63 196.78 172.68 196.78 172.68 196.57 172.68 192.06 172.68 191.84 174.63 191.84 174.63 192.06 174.63 196.57"/><polygon class="cls-5" points="172.68 196.57 172.68 196.78 170.72 196.78 170.72 196.57 170.72 192.06 170.72 191.84 172.68 191.84 172.68 192.06 172.68 196.57"/><polygon class="cls-6" points="170.72 196.57 170.72 196.78 168.77 196.78 168.77 196.57 168.77 192.06 168.77 191.84 170.72 191.84 170.72 192.06 170.72 196.57"/><polygon class="cls-5" points="168.77 196.57 168.77 196.78 166.43 196.78 166.43 196.57 166.43 192.06 166.43 191.84 168.77 191.84 168.77 192.06 168.77 196.57"/><polygon class="cls-6" points="166.43 196.57 166.43 196.78 164.47 196.78 164.47 196.57 164.47 192.06 164.47 191.84 166.43 191.84 166.43 192.06 166.43 196.57"/><polygon class="cls-5" points="164.47 196.57 164.47 196.78 162.52 196.78 162.52 196.57 162.52 192.06 162.52 191.84 164.47 191.84 164.47 192.06 164.47 196.57"/><polygon class="cls-6" points="162.52 196.57 162.52 196.78 160.57 196.78 160.57 196.57 160.57 192.06 160.57 191.84 162.52 191.84 162.52 192.06 162.52 196.57"/><polygon class="cls-5" points="160.57 196.57 160.57 196.78 158.62 196.78 158.62 196.57 158.62 192.06 158.62 191.84 160.57 191.84 160.57 192.06 160.57 196.57"/><polygon class="cls-6" points="158.62 196.57 158.62 196.78 156.66 196.78 156.66 196.57 156.66 192.06 156.66 191.84 158.62 191.84 158.62 192.06 158.62 196.57"/><polygon class="cls-5" points="156.66 196.57 156.66 196.78 154.71 196.78 154.71 196.57 154.71 192.06 154.71 191.84 156.66 191.84 156.66 192.06 156.66 196.57"/><polygon class="cls-6" points="154.71 196.57 154.71 196.78 152.76 196.78 152.76 196.57 152.76 192.06 152.76 191.84 154.71 191.84 154.71 192.06 154.71 196.57"/><polygon class="cls-5" points="152.76 196.57 152.76 196.78 150.22 196.78 150.22 191.84 152.76 191.84 152.76 192.06 152.76 196.57"/><path class="cls-7" d="M242.78,284.07a.59.59,0,0,0,.59-.58.59.59,0,1,0-1.18,0A.59.59,0,0,0,242.78,284.07Z"/><path class="cls-8" d="M80.53,321.47a174.51,174.51,0,0,0,189.38-.83c1.3-1.37,1-3.65,1-5.52H79.92A18.26,18.26,0,0,0,80.53,321.47Z"/><path class="cls-8" d="M270.9,263l0,54.85-191,.42V263a13.87,13.87,0,0,1,13.86-13.86H257A13.87,13.87,0,0,1,270.9,263Z"/><path class="cls-3" d="M206.07,249a31.87,31.87,0,0,1-62.88,0"/><path class="cls-6" d="M189.9,241.34A11.45,11.45,0,0,1,190,243a10.14,10.14,0,0,1-.1,1.46h1a11.8,11.8,0,0,1-.1-1.46,11.48,11.48,0,0,1,.12-1.66,5.42,5.42,0,0,1,.14-.7h-1.27A5.57,5.57,0,0,1,189.9,241.34Z"/><path class="cls-6" d="M176.79,241.34a11.45,11.45,0,0,1,.12,1.65,11.8,11.8,0,0,1-.1,1.46h.95a10.14,10.14,0,0,1-.1-1.46,11.48,11.48,0,0,1,.12-1.66,5.42,5.42,0,0,1,.14-.7h-1.27C176.71,240.86,176.75,241.1,176.79,241.34Z"/><path class="cls-6" d="M186.15,241.34a11.45,11.45,0,0,1,.12,1.65,10.13,10.13,0,0,1-.09,1.46h.94A11.8,11.8,0,0,1,187,243a11.48,11.48,0,0,1,.12-1.66c0-.24.08-.47.14-.7H186C186.07,240.86,186.12,241.1,186.15,241.34Z"/><path class="cls-6" d="M188,241.34a11.45,11.45,0,0,1,.12,1.65,11.8,11.8,0,0,1-.1,1.46H189a11.8,11.8,0,0,1-.09-1.46,11.48,11.48,0,0,1,.12-1.66,5.42,5.42,0,0,1,.14-.7h-1.27C188,240.86,188,241.1,188,241.34Z"/><path class="cls-6" d="M184.28,241.34a11.45,11.45,0,0,1,.12,1.65,10.14,10.14,0,0,1-.1,1.46h.95a11.8,11.8,0,0,1-.1-1.46,11.48,11.48,0,0,1,.12-1.66,5.42,5.42,0,0,1,.14-.7h-1.27A5.57,5.57,0,0,1,184.28,241.34Z"/><path class="cls-6" d="M178.66,241.34a11.45,11.45,0,0,1,.12,1.65,10.14,10.14,0,0,1-.1,1.46h.95a11.8,11.8,0,0,1-.1-1.46,11.48,11.48,0,0,1,.12-1.66,5.42,5.42,0,0,1,.14-.7h-1.27A5.57,5.57,0,0,1,178.66,241.34Z"/><path class="cls-6" d="M182.41,241.34a11.45,11.45,0,0,1,.12,1.65,11.8,11.8,0,0,1-.1,1.46h.94a11.8,11.8,0,0,1-.09-1.46,11.48,11.48,0,0,1,.12-1.66,5.42,5.42,0,0,1,.14-.7h-1.27C182.33,240.86,182.37,241.1,182.41,241.34Z"/><path class="cls-6" d="M180.53,241.34a11.45,11.45,0,0,1,.12,1.65,10.13,10.13,0,0,1-.09,1.46h.94a11.8,11.8,0,0,1-.1-1.46,11.48,11.48,0,0,1,.12-1.66c0-.24.09-.47.14-.7H180.4C180.45,240.86,180.5,241.1,180.53,241.34Z"/><path class="cls-6" d="M197.39,241.34a11.45,11.45,0,0,1,.12,1.65,10.13,10.13,0,0,1-.09,1.46h.94a11.8,11.8,0,0,1-.1-1.46,11.48,11.48,0,0,1,.12-1.66c0-.24.08-.47.14-.7h-1.26C197.31,240.86,197.36,241.1,197.39,241.34Z"/><path class="cls-6" d="M203,241.34a11.45,11.45,0,0,1,.12,1.65,10.13,10.13,0,0,1-.09,1.46H204a11.8,11.8,0,0,1-.1-1.46,11.48,11.48,0,0,1,.12-1.66c0-.24.08-.47.14-.7h-1.27A5.57,5.57,0,0,1,203,241.34Z"/><path class="cls-6" d="M201.14,241.34a11.45,11.45,0,0,1,.12,1.65,10.14,10.14,0,0,1-.1,1.46h1A11.8,11.8,0,0,1,202,243a11.48,11.48,0,0,1,.12-1.66,5.42,5.42,0,0,1,.14-.7H201A5.57,5.57,0,0,1,201.14,241.34Z"/><path class="cls-6" d="M204.89,241.34A11.45,11.45,0,0,1,205,243a11.8,11.8,0,0,1-.1,1.46h.94a11.8,11.8,0,0,1-.09-1.46,11.48,11.48,0,0,1,.12-1.66,5.42,5.42,0,0,1,.14-.7h-1.27C204.81,240.86,204.85,241.1,204.89,241.34Z"/><path class="cls-6" d="M199.27,241.34a11.45,11.45,0,0,1,.12,1.65,11.8,11.8,0,0,1-.1,1.46h.94a11.8,11.8,0,0,1-.09-1.46,11.48,11.48,0,0,1,.12-1.66,5.42,5.42,0,0,1,.14-.7h-1.27C199.19,240.86,199.23,241.1,199.27,241.34Z"/><path class="cls-6" d="M191.77,241.34a11.45,11.45,0,0,1,.12,1.65,10.13,10.13,0,0,1-.09,1.46h.94a11.8,11.8,0,0,1-.1-1.46,11.48,11.48,0,0,1,.12-1.66c0-.24.08-.47.14-.7h-1.26C191.69,240.86,191.74,241.1,191.77,241.34Z"/><path class="cls-6" d="M193.65,241.34a11.45,11.45,0,0,1,.12,1.65,11.8,11.8,0,0,1-.1,1.46h.94a11.8,11.8,0,0,1-.09-1.46,11.48,11.48,0,0,1,.12-1.66,5.42,5.42,0,0,1,.14-.7h-1.27C193.57,240.86,193.61,241.1,193.65,241.34Z"/><path class="cls-6" d="M195.52,241.34a11.45,11.45,0,0,1,.12,1.65,10.14,10.14,0,0,1-.1,1.46h1a11.8,11.8,0,0,1-.1-1.46,11.48,11.48,0,0,1,.12-1.66,5.42,5.42,0,0,1,.14-.7h-1.27A5.57,5.57,0,0,1,195.52,241.34Z"/><path class="cls-6" d="M174.91,241.34A11.45,11.45,0,0,1,175,243a10.13,10.13,0,0,1-.09,1.46h.94a11.8,11.8,0,0,1-.1-1.46,11.48,11.48,0,0,1,.12-1.66c0-.24.09-.47.14-.7h-1.26C174.83,240.86,174.88,241.1,174.91,241.34Z"/><path class="cls-6" d="M156.18,241.34a11.45,11.45,0,0,1,.12,1.65,10.14,10.14,0,0,1-.1,1.46h1a11.8,11.8,0,0,1-.1-1.46,11.48,11.48,0,0,1,.12-1.66,5.42,5.42,0,0,1,.14-.7H156A5.57,5.57,0,0,1,156.18,241.34Z"/><path class="cls-6" d="M152.44,241.34a11.43,11.43,0,0,1,.11,1.65,10.13,10.13,0,0,1-.09,1.46h.94a11.8,11.8,0,0,1-.1-1.46,11.48,11.48,0,0,1,.12-1.66c0-.24.09-.47.14-.7H152.3C152.35,240.86,152.4,241.1,152.44,241.34Z"/><path class="cls-6" d="M154.31,241.34a11.45,11.45,0,0,1,.12,1.65,11.8,11.8,0,0,1-.1,1.46h.95a10.14,10.14,0,0,1-.1-1.46,11.48,11.48,0,0,1,.12-1.66,5.42,5.42,0,0,1,.14-.7h-1.27A5.57,5.57,0,0,1,154.31,241.34Z"/><path class="cls-6" d="M148.69,241.34a11.45,11.45,0,0,1,.12,1.65,11.8,11.8,0,0,1-.1,1.46h.95a10.14,10.14,0,0,1-.1-1.46,11.48,11.48,0,0,1,.12-1.66,5.42,5.42,0,0,1,.14-.7h-1.27A5.57,5.57,0,0,1,148.69,241.34Z"/><path class="cls-6" d="M150.56,241.34a11.45,11.45,0,0,1,.12,1.65,10.14,10.14,0,0,1-.1,1.46h.95a11.8,11.8,0,0,1-.1-1.46,11.48,11.48,0,0,1,.12-1.66,5.42,5.42,0,0,1,.14-.7h-1.27A5.57,5.57,0,0,1,150.56,241.34Z"/><polygon class="cls-6" points="205.68 230.78 203.72 230.78 201.77 230.78 199.82 230.78 197.87 230.78 195.91 230.78 193.96 230.78 192.01 230.78 190.06 230.78 188.1 230.78 186.15 230.78 184.2 230.78 182.24 230.78 180.29 230.78 178.34 230.78 176.39 230.78 174.43 230.78 172.48 230.78 170.53 230.78 168.57 230.78 166.62 230.78 164.67 230.78 162.72 230.78 160.76 230.78 158.81 230.78 156.86 230.78 154.91 230.78 152.95 230.78 151 230.78 149.05 230.78 147.09 230.78 145.14 230.78 143.19 230.78 143.19 231.17 143.19 239.49 207.63 239.49 207.63 231.17 207.63 230.78 205.68 230.78"/><path class="cls-6" d="M146.82,241.34a12.17,12.17,0,0,1,0,3.11h.94a11.8,11.8,0,0,1-.1-1.46,11.48,11.48,0,0,1,.12-1.66c0-.24.09-.47.14-.7h-1.26C146.73,240.86,146.78,241.1,146.82,241.34Z"/><path class="cls-6" d="M173,241.34a11.45,11.45,0,0,1,.12,1.65,10.14,10.14,0,0,1-.1,1.46H174a11.8,11.8,0,0,1-.1-1.46,11.48,11.48,0,0,1,.12-1.66,5.42,5.42,0,0,1,.14-.7H172.9A5.57,5.57,0,0,1,173,241.34Z"/><path class="cls-6" d="M144.94,241.34a11.45,11.45,0,0,1,.12,1.65,10.14,10.14,0,0,1-.1,1.46h.95a11.8,11.8,0,0,1-.1-1.46,11.48,11.48,0,0,1,.12-1.66,5.42,5.42,0,0,1,.14-.7H144.8A5.57,5.57,0,0,1,144.94,241.34Z"/><path class="cls-6" d="M169.29,241.34a11.45,11.45,0,0,1,.12,1.65,10.13,10.13,0,0,1-.09,1.46h.94a11.8,11.8,0,0,1-.1-1.46,11.48,11.48,0,0,1,.12-1.66c0-.24.09-.47.14-.7h-1.26C169.21,240.86,169.26,241.1,169.29,241.34Z"/><path class="cls-6" d="M167.42,241.34a11.45,11.45,0,0,1,.12,1.65,10.14,10.14,0,0,1-.1,1.46h.95a11.8,11.8,0,0,1-.1-1.46,11.48,11.48,0,0,1,.12-1.66,5.42,5.42,0,0,1,.14-.7h-1.27A5.57,5.57,0,0,1,167.42,241.34Z"/><path class="cls-6" d="M158.05,241.34a11.45,11.45,0,0,1,.12,1.65,10.13,10.13,0,0,1-.09,1.46H159a11.8,11.8,0,0,1-.1-1.46,11.48,11.48,0,0,1,.12-1.66c0-.24.09-.47.14-.7h-1.26C158,240.86,158,241.1,158.05,241.34Z"/><path class="cls-6" d="M165.55,241.34a11.45,11.45,0,0,1,.12,1.65,11.8,11.8,0,0,1-.1,1.46h1a10.14,10.14,0,0,1-.1-1.46,11.48,11.48,0,0,1,.12-1.66,5.42,5.42,0,0,1,.14-.7h-1.27C165.47,240.86,165.51,241.1,165.55,241.34Z"/><path class="cls-6" d="M171.17,241.34a11.45,11.45,0,0,1,.12,1.65,11.8,11.8,0,0,1-.1,1.46h.95A10.14,10.14,0,0,1,172,243a11.48,11.48,0,0,1,.12-1.66,5.42,5.42,0,0,1,.14-.7H171C171.09,240.86,171.13,241.1,171.17,241.34Z"/><path class="cls-6" d="M159.93,241.34a11.45,11.45,0,0,1,.12,1.65,11.8,11.8,0,0,1-.1,1.46h1a10.14,10.14,0,0,1-.1-1.46,11.48,11.48,0,0,1,.12-1.66,5.42,5.42,0,0,1,.14-.7h-1.27A5.57,5.57,0,0,1,159.93,241.34Z"/><path class="cls-6" d="M161.8,241.34a11.45,11.45,0,0,1,.12,1.65,10.14,10.14,0,0,1-.1,1.46h1a11.8,11.8,0,0,1-.1-1.46,11.48,11.48,0,0,1,.12-1.66,5.42,5.42,0,0,1,.14-.7h-1.27A5.57,5.57,0,0,1,161.8,241.34Z"/><path class="cls-6" d="M163.67,241.34a11.45,11.45,0,0,1,.12,1.65,10.13,10.13,0,0,1-.09,1.46h.94a11.8,11.8,0,0,1-.1-1.46,11.48,11.48,0,0,1,.12-1.66c0-.24.09-.47.14-.7h-1.26C163.59,240.86,163.64,241.1,163.67,241.34Z"/><rect class="cls-9" x="197.09" y="119.09" width="9.37" height="29.68" rx="3.42" transform="translate(66.9 335.07) rotate(-89.73)"/><rect class="cls-9" x="132.91" y="129.24" width="29.68" height="9.37" rx="3.42" transform="translate(-3.32 3.75) rotate(-1.44)"/><path class="cls-10" d="M175.6,96.41h31a25.3,25.3,0,0,1,25.29,25.3h0v92.35a25.29,25.29,0,0,1-25.29,25.29h-31Z"/><path class="cls-6" d="M279.89,150.43A24.77,24.77,0,0,0,265.75,128a10.51,10.51,0,0,0,1.29-3.62,15.51,15.51,0,0,0,1.63-29.57,13.87,13.87,0,0,0-3.54-19.29c-.26-.17-.52-.34-.79-.5a8.93,8.93,0,0,0-14.47-10.4,19.87,19.87,0,0,0-16.79-13,11.51,11.51,0,0,0-19.22-2l-.12.14a.58.58,0,0,0,0-.18,24.43,24.43,0,0,0-39.9-13.28,16.4,16.4,0,0,0-5.55,1.73,16.42,16.42,0,0,0-23.83,11.94,11.13,11.13,0,0,0-5.82,13.67,10.86,10.86,0,0,0-4.53,1.64A15,15,0,0,0,123.74,64a15,15,0,0,0-24.5,14,16.24,16.24,0,0,0-3.48,17.32l-.5.64a14.23,14.23,0,1,0-19,21,14.59,14.59,0,0,0,4.16,15.06l.5-.35c0,.3.08.6.14.9l-.64-.55a18.6,18.6,0,0,0,6.84,33.21l.63.13.19-.17a1.6,1.6,0,0,0,0,.21l-.24,0q-.4.38-.78.78a17.87,17.87,0,0,0,11.92,30.16,5.47,5.47,0,0,0,5.43,4.77h0a10.58,10.58,0,1,0,12.32-11.52l-.41-.05a.13.13,0,0,0,0-.06l.43.1a10.93,10.93,0,0,0,11.74-16.07A8.74,8.74,0,0,0,118.45,161a10,10,0,0,0,.61-8.77,8.4,8.4,0,0,0,5.86-8,8.27,8.27,0,0,0-1-3.87,23.15,23.15,0,0,0-.23-23.65l.07-.09a14.94,14.94,0,0,0,21.86-13.25,15.83,15.83,0,0,0-.12-2,13.08,13.08,0,0,0,5.4-3,11.47,11.47,0,0,0,1.46,1,20.79,20.79,0,0,0,35.67.82,9.09,9.09,0,0,0,1.57.43A21.76,21.76,0,0,0,199.82,111a17.18,17.18,0,0,0,14.06,11.53,12.43,12.43,0,0,0,1.6,9.76,13.35,13.35,0,0,0,2.15,13.23,13.67,13.67,0,0,0,9.92,23.1h.51A16.83,16.83,0,0,0,230,182.34a7.1,7.1,0,0,0-5.44,7.75,9,9,0,0,0,1.72,16.72l.2.37a18.85,18.85,0,0,0,5,8.88,6.92,6.92,0,0,0,5,11.67h.43l0,.13a8.75,8.75,0,0,0,16.53,5.77,2.47,2.47,0,0,1,.1-.29,11.49,11.49,0,0,0,7.54-21.53,18.6,18.6,0,0,0,2.34-9.05,12.82,12.82,0,0,0-.05-1.39,6.74,6.74,0,0,0,2.11-12.49,12.24,12.24,0,0,0,6.28-14.06,11,11,0,0,0,4.8-9,10.55,10.55,0,0,0-.3-2.5A24.62,24.62,0,0,0,279.89,150.43Z"/><path class="cls-11" d="M162.49,157.47a14.78,14.78,0,0,1-29.48,0h-3.35a18.12,18.12,0,0,0,36.18,0Z"/><path class="cls-11" d="M219.15,157.47a14.78,14.78,0,0,1-29.48,0h-3.35a18.12,18.12,0,0,0,36.18,0Z"/><path class="cls-10" d="M257,249.12H173.65l.75,66H174l.21,33.86h.33a173.52,173.52,0,0,0,95.29-28.32,2.93,2.93,0,0,0,1-2.41V263A13.87,13.87,0,0,0,257,249.12Z"/></svg>