<?xml version="1.0" encoding="utf-8"?>
<!-- Generator: Adobe Illustrator 23.0.1, SVG Export Plug-In . SVG Version: 6.00 Build 0)  -->
<svg version="1.1" id="Layer_3" xmlns="http://www.w3.org/2000/svg" xmlns:xlink="http://www.w3.org/1999/xlink" x="0px" y="0px"
	 viewBox="0 0 100 100" style="enable-background:new 0 0 100 100;" xml:space="preserve">
<style type="text/css">
	.st0{fill:#FFFFFF;}
</style>
<g>
	<path class="st0" d="M86.06,84.52H83v-5h2.89v-1.17h5v2h-4.83V84.52z M90.89,77.34h-5v-4h5V77.34z M90.89,71.34h-5v-10h5V71.34z
		 M90.89,57.34h-5v-2h5V57.34z M90.89,54.34h-5v-4h5V54.34z M90.89,48.34h-5v-10h5V48.34z M90.89,34.34h-5v-2h5V34.34z M90.89,31.34
		h-5v-4h5V31.34z"/>
</g>
<g>
	<polygon class="st0" points="16.18,58.87 11.18,58.87 11.18,51.1 21.16,43.67 21.16,10.47 90.89,10.47 90.89,23 85.89,23 
		85.89,15.47 26.16,15.47 26.16,46.18 16.18,53.61 	"/>
</g>
<g>
	<polygon class="st0" points="80.12,96.73 51.59,96.73 51.59,91.73 75.12,91.73 75.12,66.23 70.81,66.23 70.81,61.23 80.12,61.23 	
		"/>
</g>
<g>
	<g>
		<rect x="21.58" y="2.48" class="st0" width="2" height="5"/>
	</g>
	<g>
		<path class="st0" d="M40.47,7.48h-9.93v-5h9.93V7.48z M26.56,7.48h-1.99v-5h1.99V7.48z"/>
	</g>
	<g>
		<path class="st0" d="M86.16,7.48h-9.93v-5h9.93V7.48z M72.25,7.48h-1.99v-5h1.99V7.48z M69.27,7.48H65.3v-5h3.97V7.48z
			 M63.31,7.48h-9.93v-5h9.93V7.48z M49.41,7.48h-1.99v-5h1.99V7.48z M46.43,7.48h-3.97v-5h3.97V7.48z"/>
	</g>
	<g>
		<rect x="88.14" y="2.48" class="st0" width="2" height="5"/>
	</g>
</g>
<g>
	<g>
		<rect x="24.34" y="80.83" class="st0" width="1.1" height="15.95"/>
	</g>
	<g>
		<path class="st0" d="M15.54,80.41v16.36h1.1V80.81C16.24,80.78,15.86,80.64,15.54,80.41z"/>
	</g>
	<g>
		<rect x="26.54" y="80.83" class="st0" width="1.1" height="15.95"/>
	</g>
	<g>
		<rect x="19.94" y="80.83" class="st0" width="1.1" height="15.95"/>
	</g>
	<g>
		<rect x="17.74" y="80.83" class="st0" width="1.1" height="15.95"/>
	</g>
	<g>
		<rect x="22.14" y="80.83" class="st0" width="1.1" height="15.95"/>
	</g>
	<g>
		<path class="st0" d="M7.52,61.7v35.07h2.53V65.1c0-0.3,0.25-0.55,0.55-0.55c0.3,0,0.55,0.25,0.55,0.55v31.67h1.1V65.1
			c0-0.3,0.25-0.55,0.55-0.55c0.3,0,0.55,0.25,0.55,0.55v31.67h1.1V65.1c0-0.3,0.25-0.55,0.55-0.55c0.3,0,0.55,0.25,0.55,0.55v11.7
			c0.32-0.23,0.69-0.36,1.1-0.4V65.1c0-0.3,0.25-0.55,0.55-0.55s0.55,0.25,0.55,0.55v11.28h1.1V65.1c0-0.3,0.25-0.55,0.55-0.55
			c0.3,0,0.55,0.25,0.55,0.55v11.28h1.1V65.1c0-0.3,0.25-0.55,0.55-0.55c0.3,0,0.55,0.25,0.55,0.55v11.28h1.1V65.1
			c0-0.3,0.25-0.55,0.55-0.55c0.3,0,0.55,0.25,0.55,0.55v11.28h1.1V65.1c0-0.3,0.25-0.55,0.55-0.55c0.3,0,0.55,0.25,0.55,0.55v11.28
			h1.1V65.1c0-0.3,0.25-0.55,0.55-0.55c0.3,0,0.55,0.25,0.55,0.55v11.28h1.1V65.1c0-0.3,0.25-0.55,0.55-0.55
			c0.3,0,0.55,0.25,0.55,0.55v11.28h1.1V65.1c0-0.3,0.25-0.55,0.55-0.55s0.55,0.25,0.55,0.55v11.28h1.1V65.1
			c0-0.3,0.25-0.55,0.55-0.55h0c0.3,0,0.55,0.25,0.55,0.55v11.31c0.42,0.06,0.79,0.23,1.1,0.48V65.1c0-0.3,0.25-0.55,0.55-0.55
			c0.3,0,0.55,0.25,0.55,0.55v31.67h1.1V65.1c0-0.3,0.25-0.55,0.55-0.55c0.3,0,0.55,0.25,0.55,0.55v31.67h1.1V65.1
			c0-0.3,0.25-0.55,0.55-0.55s0.55,0.25,0.55,0.55v31.67h1.1V65.1c0-0.3,0.25-0.55,0.55-0.55s0.55,0.25,0.55,0.55v31.67h1.1V65.1
			c0-0.3,0.25-0.55,0.55-0.55c0.3,0,0.55,0.25,0.55,0.55v31.67h2.53V61.7H7.52z"/>
	</g>
	<g>
		<rect x="28.74" y="80.83" class="st0" width="1.1" height="15.95"/>
	</g>
	<g>
		<path class="st0" d="M35.34,80.8v15.98h1.1V80.31C36.14,80.57,35.76,80.74,35.34,80.8z"/>
	</g>
	<g>
		<rect x="30.94" y="80.83" class="st0" width="1.1" height="15.95"/>
	</g>
	<g>
		<rect x="33.14" y="80.83" class="st0" width="1.1" height="15.95"/>
	</g>
</g>
<g>
	<path class="st0" d="M41.91,41.36c-3.46,0-6.26-2.8-6.26-6.26h-2.76c0,4.98,4.04,9.02,9.02,9.02c4.98,0,9.02-4.04,9.02-9.02h-2.76
		C48.17,38.56,45.37,41.36,41.91,41.36z"/>
</g>
</svg>
